<svg width="800" height="600" viewBox="0 0 800 600" xmlns="http://www.w3.org/2000/svg">
  <defs>
    <linearGradient id="bg-gradient" x1="0%" y1="0%" x2="100%" y2="100%">
      <stop offset="0%" stop-color="#f3e8ff" />
      <stop offset="100%" stop-color="#d8b4fe" />
    </linearGradient>
  </defs>
  <rect width="800" height="600" fill="url(#bg-gradient)" />
  
  <!-- Office Background -->
  <rect x="100" y="100" width="600" height="400" rx="10" fill="white" opacity="0.9" />
  
  <!-- Team Members -->
  <!-- Person 1 -->
  <circle cx="200" cy="300" r="50" fill="#f3e8ff" stroke="#a855f7" stroke-width="2" />
  <circle cx="200" cy="270" r="20" fill="#a855f7" />
  <rect x="170" y="300" width="60" height="80" rx="10" fill="#a855f7" />
  
  <!-- Person 2 -->
  <circle cx="350" cy="300" r="50" fill="#f3e8ff" stroke="#a855f7" stroke-width="2" />
  <circle cx="350" cy="270" r="20" fill="#a855f7" />
  <rect x="320" y="300" width="60" height="80" rx="10" fill="#a855f7" />
  
  <!-- Person 3 -->
  <circle cx="500" cy="300" r="50" fill="#f3e8ff" stroke="#a855f7" stroke-width="2" />
  <circle cx="500" cy="270" r="20" fill="#a855f7" />
  <rect x="470" y="300" width="60" height="80" rx="10" fill="#a855f7" />
  
  <!-- Person 4 -->
  <circle cx="650" cy="300" r="50" fill="#f3e8ff" stroke="#a855f7" stroke-width="2" />
  <circle cx="650" cy="270" r="20" fill="#a855f7" />
  <rect x="620" y="300" width="60" height="80" rx="10" fill="#a855f7" />
  
  <!-- Company Name -->
  <text x="400" y="150" font-family="Arial" font-size="36" fill="#a855f7" text-anchor="middle">Funnelar Team</text>
  <text x="400" y="500" font-family="Arial" font-size="24" fill="#333" text-anchor="middle">Amazon Marketing Experts</text>
</svg>

