<svg width="800" height="450" viewBox="0 0 800 450" xmlns="http://www.w3.org/2000/svg">
  <defs>
    <linearGradient id="bg-gradient" x1="0%" y1="0%" x2="100%" y2="100%">
      <stop offset="0%" stop-color="#e9d5ff" />
      <stop offset="100%" stop-color="#c084fc" />
    </linearGradient>
  </defs>
  <rect width="800" height="450" fill="url(#bg-gradient)" />
  
  <!-- PPC Dashboard Elements -->
  <rect x="150" y="100" width="500" height="250" rx="10" fill="white" opacity="0.9" />
  
  <!-- Header -->
  <rect x="150" y="100" width="500" height="50" rx="10" fill="#a855f7" />
  <text x="400" y="130" font-family="Arial" font-size="20" fill="white" text-anchor="middle">Amazon PPC Dashboard</text>
  
  <!-- Chart Area -->
  <rect x="170" y="170" width="200" height="160" rx="5" fill="#f3e8ff" />
  <path d="M180 300 L190 280 L210 290 L230 270 L250 250 L270 260 L290 240 L310 230 L330 220 L350 210" stroke="#a855f7" stroke-width="2" fill="none" />
  
  <!-- Metrics Area -->
  <rect x="390" y="170" width="240" height="160" rx="5" fill="#f3e8ff" />
  <text x="510" y="200" font-family="Arial" font-size="16" fill="#333" text-anchor="middle">Key Metrics</text>
  
  <text x="420" y="230" font-family="Arial" font-size="14" fill="#666">CTR:</text>
  <text x="480" y="230" font-family="Arial" font-size="14" fill="#333">3.2%</text>
  
  <text x="420" y="260" font-family="Arial" font-size="14" fill="#666">Conversion:</text>
  <text x="480" y="260" font-family="Arial" font-size="14" fill="#333">12.8%</text>
  
  <text x="420" y="290" font-family="Arial" font-size="14" fill="#666">ACoS:</text>
  <text x="480" y="290" font-family="Arial" font-size="14" fill="#333">18.5%</text>
  
  <text x="400" y="380" font-family="Arial" font-size="24" fill="#333" text-anchor="middle">Mastering Amazon PPC</text>
</svg>

