<svg width="800" height="450" viewBox="0 0 800 450" xmlns="http://www.w3.org/2000/svg">
  <defs>
    <linearGradient id="bg-gradient" x1="0%" y1="0%" x2="100%" y2="100%">
      <stop offset="0%" stop-color="#ddd6fe" />
      <stop offset="100%" stop-color="#a78bfa" />
    </linearGradient>
  </defs>
  <rect width="800" height="450" fill="url(#bg-gradient)" />
  
  <!-- AI Concept Visualization -->
  <circle cx="400" cy="200" r="120" fill="white" opacity="0.8" />
  
  <!-- Brain Network Visualization -->
  <circle cx="350" cy="170" r="15" fill="#a855f7" />
  <circle cx="400" cy="150" r="12" fill="#a855f7" />
  <circle cx="450" cy="170" r="15" fill="#a855f7" />
  <circle cx="330" cy="220" r="10" fill="#a855f7" />
  <circle cx="380" cy="240" r="12" fill="#a855f7" />
  <circle cx="430" cy="230" r="10" fill="#a855f7" />
  <circle cx="470" cy="210" r="12" fill="#a855f7" />
  
  <line x1="350" y1="170" x2="400" y2="150" stroke="#a855f7" stroke-width="2" />
  <line x1="400" y1="150" x2="450" y2="170" stroke="#a855f7" stroke-width="2" />
  <line x1="350" y1="170" x2="330" y2="220" stroke="#a855f7" stroke-width="2" />
  <line x1="350" y1="170" x2="380" y2="240" stroke="#a855f7" stroke-width="2" />
  <line x1="450" y1="170" x2="430" y2="230" stroke="#a855f7" stroke-width="2" />
  <line x1="450" y1="170" x2="470" y2="210" stroke="#a855f7" stroke-width="2" />
  <line x1="330" y1="220" x2="380" y2="240" stroke="#a855f7" stroke-width="2" />
  <line x1="380" y1="240" x2="430" y2="230" stroke="#a855f7" stroke-width="2" />
  <line x1="430" y1="230" x2="470" y2="210" stroke="#a855f7" stroke-width="2" />
  
  <!-- Amazon Icon Stylized -->
  <rect x="350" y="300" width="100" height="60" rx="10" fill="#f3e8ff" stroke="#a855f7" stroke-width="2" />
  <path d="M370 330 Q400 310 430 330" stroke="#a855f7" stroke-width="2" fill="none" />
  
  <text x="400" y="380" font-family="Arial" font-size="24" fill="#333" text-anchor="middle">AI Impact on Amazon Sellers</text>
</svg>

