<svg width="800" height="450" xmlns="http://www.w3.org/2000/svg">
  <rect width="800" height="450" fill="#fdf2f8"/>
  <rect x="100" y="50" width="600" height="350" rx="10" fill="white" stroke="#a855f7" stroke-width="2"/>
  <text x="400" y="100" font-family="Arial" font-size="24" fill="#a855f7" text-anchor="middle">Beauty Brand Expansion</text>
  <text x="400" y="150" font-family="Arial" font-size="18" fill="#333" text-anchor="middle">Scaled from 2 to 12 Products</text>
  
  <!-- Beauty Products Visualization -->
  <rect x="250" y="200" width="40" height="100" rx="5" fill="#f3e8ff" stroke="#a855f7" stroke-width="2" />
  <rect x="310" y="220" width="40" height="80" rx="5" fill="#f3e8ff" stroke="#a855f7" stroke-width="2" />
  <rect x="370" y="180" width="40" height="120" rx="5" fill="#f3e8ff" stroke="#a855f7" stroke-width="2" />
  <rect x="430" y="200" width="40" height="100" rx="5" fill="#f3e8ff" stroke="#a855f7" stroke-width="2" />
  <rect x="490" y="210" width="40" height="90" rx="5" fill="#f3e8ff" stroke="#a855f7" stroke-width="2" />
  <rect x="550" y="220" width="40" height="80" rx="5" fill="#f3e8ff" stroke="#a855f7" stroke-width="2" />
  <rect x="190" y="210" width="40" height="90" rx="5" fill="#f3e8ff" stroke="#a855f7" stroke-width="2" />
  <rect x="610" y="190" width="40" height="110" rx="5" fill="#f3e8ff" stroke="#a855f7" stroke-width="2" />
  <rect x="670" y="200" width="40" height="100" rx="5" fill="#f3e8ff" stroke="#a855f7" stroke-width="2" />
  <rect x="130" y="190" width="40" height="110" rx="5" fill="#f3e8ff" stroke="#a855f7" stroke-width="2" />
  <rect x="70" y="200" width="40" height="100" rx="5" fill="#f3e8ff" stroke="#a855f7" stroke-width="2" />
  <rect x="10" y="210" width="40" height="90" rx="5" fill="#f3e8ff" stroke="#a855f7" stroke-width="2" />
</svg>

